<svg xmlns="http://www.w3.org/2000/svg" version="1.1" xmlns:xlink="http://www.w3.org/1999/xlink" xmlns:svgjs="http://svgjs.dev/svgjs" width="1440" height="560" preserveAspectRatio="none" viewBox="0 0 1440 560"><g mask="url(&quot;#SvgjsMask1108&quot;)" fill="none"><rect width="1440" height="560" x="0" y="0" fill="#1e3266"></rect><path d="M1560 560L0 560 L0 326.31Q58.12 264.43, 120 322.55Q193.94 276.5, 240 350.44Q269 307.44, 312 336.43Q396.97 301.4, 432 386.38Q453.75 288.13, 552 309.88Q597.5 283.38, 624 328.87Q690.38 323.25, 696 389.64Q743.5 317.13, 816 364.63Q828.13 304.76, 888 316.9Q960.24 269.14, 1008 341.38Q1062.24 275.62, 1128 329.85Q1153.7 283.56, 1200 309.26Q1288.77 278.03, 1320 366.8Q1391.95 318.75, 1440 390.7Q1468.95 299.65, 1560 328.61z" fill="rgba(121, 153, 215, 1)"></path><path d="M1464 560L0 560 L0 383.78Q71.8 383.58, 72 455.38Q122.73 386.11, 192 436.84Q208.35 381.19, 264 397.54Q288.5 350.05, 336 374.55Q413.81 332.36, 456 410.16Q484.14 366.3, 528 394.44Q587.92 382.37, 600 442.29Q617.15 387.45, 672 404.6Q690.22 350.82, 744 369.04Q787.55 340.59, 816 384.13Q880.56 376.69, 888 441.24Q939.37 372.61, 1008 423.97Q1019.55 363.52, 1080 375.07Q1124.22 347.29, 1152 391.52Q1242.67 362.19, 1272 452.86Q1285.69 394.56, 1344 408.25Q1393.92 338.17, 1464 388.09z" fill="rgba(194, 86, 225, 1)"></path><path d="M1464 560L0 560 L0 473.81Q29.33 431.14, 72 460.48Q121 437.49, 144 486.49Q185.36 407.85, 264 449.21Q349.93 415.13, 384 501.06Q385.97 431.03, 456 433Q521.75 378.75, 576 444.51Q637.34 433.85, 648 495.19Q666.06 441.25, 720 459.31Q769.82 389.13, 840 438.94Q926.33 405.27, 960 491.61Q1032.68 444.3, 1080 516.98Q1084.13 449.12, 1152 453.25Q1203.77 385.02, 1272 436.79Q1351.98 396.77, 1392 476.75Q1414.09 426.84, 1464 448.92z" fill="rgba(152, 27, 141, 1)"></path><path d="M1536 560L0 560 L0 516.06Q70.48 514.53, 72 585.01Q117.36 510.37, 192 555.73Q219.3 511.03, 264 538.33Q286.77 489.1, 336 511.87Q391.07 494.94, 408 550.01Q475.67 497.68, 528 565.35Q569.65 535, 600 576.65Q645.09 501.74, 720 546.82Q730.46 485.28, 792 495.74Q834.1 465.84, 864 507.93Q954.36 478.28, 984 568.64Q1033.26 497.9, 1104 547.16Q1132.27 503.43, 1176 531.7Q1254.45 490.15, 1296 568.6Q1327.97 480.58, 1416 512.55Q1496.49 473.04, 1536 553.53z" fill="rgba(229, 164, 164, 1)"></path></g><defs><mask id="SvgjsMask1108"><rect width="1440" height="560" fill="#ffffff"></rect></mask></defs></svg>