<svg xmlns="http://www.w3.org/2000/svg" version="1.1" xmlns:xlink="http://www.w3.org/1999/xlink" xmlns:svgjs="http://svgjs.dev/svgjs" width="1440" height="560" preserveAspectRatio="none" viewBox="0 0 1440 560"><g mask="url(&quot;#SvgjsMask1087&quot;)" fill="none"><rect width="1440" height="560" x="0" y="0" fill="url(&quot;#SvgjsLinearGradient1088&quot;)"></rect><path d="M 0,273 C 36,238.6 108,115.6 180,101 C 252,86.4 288,216.6 360,200 C 432,183.4 468,28.4 540,18 C 612,7.6 648,139.4 720,148 C 792,156.6 828,37.6 900,61 C 972,84.4 1008,251.6 1080,265 C 1152,278.4 1188,139.8 1260,128 C 1332,116.2 1404,190.4 1440,206L1440 560L0 560z" fill="#184a7e"></path><path d="M 0,353 C 18,388.2 54,521.6 90,529 C 126,536.4 144,385.8 180,390 C 216,394.2 234,564.2 270,550 C 306,535.8 324,327.6 360,319 C 396,310.4 414,511.4 450,507 C 486,502.6 504,303.2 540,297 C 576,290.8 594,463.2 630,476 C 666,488.8 684,370.2 720,361 C 756,351.8 774,431 810,430 C 846,429 864,342.2 900,356 C 936,369.8 954,504.8 990,499 C 1026,493.2 1044,330 1080,327 C 1116,324 1134,474.2 1170,484 C 1206,493.8 1224,367.2 1260,376 C 1296,384.8 1314,545 1350,528 C 1386,511 1422,338.4 1440,291L1440 560L0 560z" fill="#2264ab"></path></g><defs><mask id="SvgjsMask1087"><rect width="1440" height="560" fill="#ffffff"></rect></mask><linearGradient x1="84.72%" y1="-39.29%" x2="15.28%" y2="139.29%" gradientUnits="userSpaceOnUse" id="SvgjsLinearGradient1088"><stop stop-color="#0e2a47" offset="0"></stop><stop stop-color="rgba(87, 114, 147, 1)" offset="1"></stop></linearGradient></defs></svg>