<svg xmlns="http://www.w3.org/2000/svg" version="1.1" xmlns:xlink="http://www.w3.org/1999/xlink" xmlns:svgjs="http://svgjs.dev/svgjs" width="1440" height="560" preserveAspectRatio="none" viewBox="0 0 1440 560"><g mask="url(&quot;#SvgjsMask1000&quot;)" fill="none"><rect width="1440" height="560" x="0" y="0" fill="#0e2a47"></rect><path d="M 0,199 C 57.6,166 172.8,31.4 288,34 C 403.2,36.6 460.8,207.2 576,212 C 691.2,216.8 748.8,51 864,58 C 979.2,65 1036.8,237.6 1152,247 C 1267.2,256.4 1382.4,133.4 1440,105L1440 560L0 560z" fill="#184a7e"></path><path d="M 0,427 C 96,400 288,291.6 480,292 C 672,292.4 768,426 960,429 C 1152,432 1344,331.4 1440,307L1440 560L0 560z" fill="#2264ab"></path></g><defs><mask id="SvgjsMask1000"><rect width="1440" height="560" fill="#ffffff"></rect></mask></defs></svg>